<svg width="35" height="24" viewBox="0 0 35 24" fill="none" xmlns="http://www.w3.org/2000/svg">
<path fill-rule="evenodd" clip-rule="evenodd" d="M15.81 14.98C15.95 14.82 16.08 14.65 16.19 14.47L9.84001 12.62L15.81 14.98Z" fill="#173B4D"/>
<path fill-rule="evenodd" clip-rule="evenodd" d="M15.65 15.15L9.78001 12.74L15.11 15.58C15.31 15.45 15.49 15.31 15.65 15.15Z" fill="#173B4D"/>
<path fill-rule="evenodd" clip-rule="evenodd" d="M14.43 15.9C14.58 15.85 14.73 15.79 14.87 15.71L9.73001 12.83L14.43 15.9Z" fill="#173B4D"/>
<path fill-rule="evenodd" clip-rule="evenodd" d="M25.7 12.62L19.35 14.48C19.46 14.66 19.59 14.83 19.73 14.99L25.7 12.62Z" fill="#173B4D"/>
<path fill-rule="evenodd" clip-rule="evenodd" d="M20.42 15.57L25.75 12.73L19.88 15.14C20.05 15.31 20.23 15.45 20.42 15.57Z" fill="#173B4D"/>
<path fill-rule="evenodd" clip-rule="evenodd" d="M25.8 12.83L20.66 15.71C20.8 15.78 20.95 15.85 21.1 15.9L25.8 12.83Z" fill="#173B4D"/>
<path fill-rule="evenodd" clip-rule="evenodd" d="M2.13001 10.29L1.93001 11.22L7.94001 12.02L2.13001 10.29Z" fill="#173B4D"/>
<path fill-rule="evenodd" clip-rule="evenodd" d="M33.41 10.29L27.6 12.02L33.61 11.22L33.41 10.29Z" fill="#173B4D"/>
<path fill-rule="evenodd" clip-rule="evenodd" d="M15.72 16.05C15.55 16.16 15.37 16.26 15.18 16.33C14.75 16.51 14.29 16.61 13.8 16.61C15.84 16.61 17.7 18.37 17.7 20.52V20.84C17.7 20.91 17.76 20.97 17.83 20.97C17.9 20.97 17.96 20.91 17.96 20.84V20.52C17.96 18.4 19.8 16.67 21.8 16.61C21.48 16.6 21.17 16.55 20.87 16.46C20.65 16.39 20.44 16.31 20.25 16.2C20.2 16.17 20.14 16.14 20.09 16.11C19.84 15.96 19.6 15.78 19.38 15.57C19.35 15.54 19.31 15.5 19.28 15.47C19.12 15.3 18.97 15.11 18.84 14.91C18.43 14.28 18.18 13.52 18.18 12.7V1.36001C18.18 0.88001 18.07 0.37001 17.94 0.0100098L17.51 12.71C17.51 13.43 17.32 14.11 16.99 14.69C16.86 14.92 16.72 15.13 16.55 15.32C16.52 15.35 16.49 15.38 16.46 15.42C16.27 15.62 16.07 15.8 15.85 15.96C15.82 15.99 15.77 16.02 15.72 16.05Z" fill="#173B4D"/>
<path fill-rule="evenodd" clip-rule="evenodd" d="M26.15 11.89L26.31 11.94L26.71 12.06L26.75 11.92L26.82 11.64L26.91 11.33L21.18 2.60999L25.79 11.78L26.15 11.89Z" fill="#173B4D"/>
<path fill-rule="evenodd" clip-rule="evenodd" d="M8.87002 11.89L8.92002 12.06L9.22002 11.96L9.44002 11.89H9.45002L9.80002 11.78L14.41 2.60999L8.69002 11.32L8.78002 11.62L8.87002 11.89Z" fill="#173B4D"/>
<path fill-rule="evenodd" clip-rule="evenodd" d="M34.4 23.7C34.41 23.69 34.41 23.69 34.42 23.68C34.43 23.66 34.45 23.65 34.46 23.62C34.48 23.59 34.5 23.56 34.51 23.53C34.59 23.38 34.61 23.2 34.58 23.04C34.57 23.01 34.56 22.98 34.55 22.94V22.93C34.55 22.92 34.54 22.91 34.54 22.9C34.52 22.86 34.5 22.83 34.48 22.79L29.4 15.02C29.38 15.01 29.37 14.99 29.36 14.97L28 12.93L27.59 12.8H27.58L27.45 12.76L27.05 12.64L27 12.62C27 12.62 27 12.62 26.99 12.62L26.98 12.63L26.96 12.71V12.72L26.86 13.04L26.81 13.2L26.69 13.58L30.21 20.55C30.25 20.63 30.25 20.73 30.2 20.81C30.15 20.89 30.07 20.94 29.97 20.94H18.39L18.06 21.21L18.04 21.23C17.99 21.27 17.92 21.3 17.85 21.3C17.78 21.3 17.71 21.27 17.65 21.23L17.63 21.21H17.62L17.31 20.94H5.64001C5.55001 20.94 5.46001 20.89 5.41001 20.81C5.36001 20.73 5.36001 20.63 5.40001 20.55L8.89001 13.6L8.80001 13.17L8.76001 12.97L8.70001 12.63C8.70001 12.63 8.70001 12.62 8.69001 12.62C8.69001 12.62 8.69001 12.62 8.68001 12.62L8.18001 12.77L8.00001 12.82L7.56001 12.95L1.12001 22.8C1.10001 22.84 1.08001 22.87 1.06001 22.91C1.06001 22.92 1.05001 22.92 1.05001 22.93C1.05001 22.93 1.05001 22.94 1.04001 22.94C1.04001 22.94 1.04001 22.94 1.04001 22.95C1.03001 22.98 1.02001 23.02 1.01001 23.05C0.970011 23.21 1.00001 23.39 1.08001 23.54C1.10001 23.57 1.11001 23.6 1.14001 23.63C1.28001 23.82 1.49001 23.93 1.73001 23.93H33.87C34.07 23.93 34.26 23.85 34.4 23.7ZM33.07 23.21H2.45001C2.16001 23.21 1.99001 22.89 2.15001 22.65L6.31001 16.32C6.42001 16.15 6.68001 16.3 6.59001 16.48L4.60001 20.42C4.45001 20.71 4.47001 21.06 4.64001 21.33C4.81001 21.6 5.11001 21.77 5.44001 21.77H30.1C30.43 21.77 30.72 21.6 30.9 21.33C31.07 21.05 31.09 20.71 30.94 20.42L28.97 16.51C28.88 16.33 29.14 16.18 29.25 16.35L33.38 22.64C33.53 22.88 33.36 23.21 33.07 23.21Z" fill="#173B4D"/>
</svg>
