<svg width="65" height="15" viewBox="0 0 65 15" fill="none" xmlns="http://www.w3.org/2000/svg">
<path d="M6.46001 0.220001H7.90001L14.11 13.95H12.45L10.85 10.35H3.43001L1.81001 13.95H0.230011L6.46001 0.220001ZM10.25 8.96L7.15001 2.01L4.03001 8.96H10.25Z" fill="#173B4D"/>
<path d="M23.11 6.99998L18.07 0.319977H19.88L24.07 5.88998L28.22 0.319977H30L24.96 6.97998L30.2 13.95H28.37L24 8.08998L19.64 13.95H17.87L23.11 6.99998Z" fill="#173B4D"/>
<path d="M33.55 7.12999C33.55 3.36999 36.37 0.0799866 40.52 0.0799866C44.67 0.0799866 47.45 3.32999 47.45 7.12999C47.45 10.89 44.63 14.18 40.48 14.18C36.33 14.18 33.55 10.93 33.55 7.12999ZM45.85 7.12999C45.85 4.02999 43.59 1.49999 40.48 1.49999C37.37 1.49999 35.15 3.98999 35.15 7.12999C35.15 10.23 37.41 12.76 40.52 12.76C43.63 12.76 45.85 10.27 45.85 7.12999Z" fill="#173B4D"/>
<path d="M52.81 0.319977H54.25L62.84 11.24V0.319977H64.34V13.95H63.11L54.31 2.76998V13.95H52.81V0.319977Z" fill="#173B4D"/>
</svg>
