<?xml version="1.0" standalone="no"?>
<!DOCTYPE svg PUBLIC "-//W3C//DTD SVG 20010904//EN"
 "http://www.w3.org/TR/2001/REC-SVG-20010904/DTD/svg10.dtd">
<svg version="1.0" xmlns="http://www.w3.org/2000/svg"
 width="1120.000000pt" height="1120.000000pt" viewBox="0 0 1120.000000 1120.000000"
 preserveAspectRatio="xMidYMid meet">
<metadata>
Created by potrace 1.11, written by Peter Selinger 2001-2013
</metadata>
<g transform="translate(0.000000,1120.000000) scale(0.100000,-0.100000)"
fill="#000000" stroke="none">
<path d="M5740 9415 c0 -5 -3 -75 -5 -155 -3 -80 -7 -210 -10 -290 -3 -80 -7
-208 -10 -285 -2 -77 -6 -205 -10 -285 -5 -151 -13 -385 -20 -600 -2 -69 -7
-201 -10 -295 -9 -282 -14 -422 -20 -605 -3 -96 -8 -229 -10 -295 -3 -66 -7
-196 -10 -290 -2 -93 -7 -228 -10 -300 -9 -219 -16 -443 -20 -595 -2 -80 -5
-145 -5 -145 -1 0 -3 -18 -5 -40 -22 -306 -211 -652 -470 -860 -28 -21 -52
-42 -55 -45 -11 -13 -110 -69 -165 -95 -66 -30 -185 -71 -230 -79 -34 -7 -83
-16 -105 -21 -8 -2 -25 -4 -37 -4 -13 -1 -23 -5 -23 -9 0 -4 17 -8 38 -7 20 0
41 -2 47 -4 5 -3 25 -6 45 -8 52 -6 228 -67 312 -109 327 -165 574 -463 668
-806 33 -121 41 -182 44 -346 2 -96 9 -111 48 -112 27 0 34 27 37 140 4 178
17 253 67 395 31 85 84 199 96 203 4 2 8 8 8 14 0 5 22 42 50 82 146 211 375
391 614 480 87 33 206 64 269 69 50 5 75 16 41 18 -185 13 -391 95 -575 229
-72 52 -229 207 -229 226 0 7 -3 14 -7 16 -38 16 -186 299 -207 393 -2 6 -8
28 -14 50 -6 22 -13 51 -16 65 -3 14 -7 35 -10 48 -16 74 -19 368 -19 2065 0
1986 1 1909 -41 2098 -8 36 -34 106 -36 94z"/>
<path d="M4525 8472 c-27 -42 -53 -78 -57 -80 -5 -2 -8 -8 -8 -13 0 -11 -42
-72 -52 -77 -5 -2 -8 -10 -8 -18 0 -8 -4 -14 -10 -14 -5 0 -10 -4 -10 -9 0
-12 -81 -135 -92 -139 -4 -2 -8 -10 -8 -17 0 -8 -6 -20 -13 -27 -7 -7 -28 -38
-47 -68 -19 -30 -38 -59 -43 -65 -4 -5 -60 -91 -125 -190 -65 -99 -156 -238
-202 -309 -47 -71 -135 -206 -197 -300 -61 -94 -116 -176 -121 -181 -5 -6 -11
-15 -13 -21 -2 -5 -47 -75 -100 -154 -53 -80 -139 -210 -191 -290 -52 -80
-153 -233 -224 -340 -71 -107 -131 -200 -134 -205 -3 -6 -24 -38 -47 -72 l-43
-61 31 -99 c29 -93 36 -119 38 -135 1 -8 15 -4 172 46 l115 37 308 612 c621
1233 796 1583 796 1590 0 4 5 13 10 20 6 7 81 152 166 322 86 171 160 316 166
323 6 6 7 12 2 12 -5 0 -31 -35 -59 -78z"/>
<path d="M6810 8547 c0 -4 230 -465 511 -1025 282 -559 606 -1204 721 -1433
l209 -417 82 -25 c45 -15 111 -35 147 -46 l65 -19 8 22 c5 11 11 32 14 46 8
41 9 43 27 104 l17 58 -33 54 c-18 30 -36 54 -40 54 -4 0 -8 4 -8 10 0 5 -78
127 -173 272 -96 145 -207 315 -249 378 -72 111 -173 264 -436 665 -69 105
-151 230 -183 278 -33 49 -59 92 -59 97 0 5 -3 10 -7 12 -5 2 -27 32 -50 68
-24 36 -47 70 -53 77 -5 7 -15 24 -22 38 -6 14 -15 25 -20 25 -4 0 -8 4 -8 9
0 5 -63 104 -140 220 -77 116 -140 215 -140 220 0 5 -3 11 -8 13 -4 2 -44 59
-90 128 -45 69 -82 121 -82 117z"/>
<path d="M10590 6118 c-52 -16 -149 -45 -215 -65 -66 -19 -142 -41 -170 -49
-27 -8 -54 -16 -60 -18 -5 -1 -44 -13 -85 -26 -41 -13 -79 -24 -85 -26 -21 -4
-131 -36 -145 -41 -8 -4 -17 -7 -20 -8 -28 -7 -142 -41 -210 -62 -47 -14 -86
-25 -87 -25 -2 1 -21 -5 -44 -13 -23 -9 -51 -17 -63 -20 -69 -15 -536 -161
-536 -168 0 -4 5 -5 12 -1 12 8 38 12 103 18 38 4 78 10 154 22 19 3 53 7 75
10 23 2 57 7 76 10 19 3 51 7 70 9 47 5 116 14 149 19 27 5 152 21 236 31 28
4 61 8 75 10 145 22 262 35 270 30 6 -3 10 -2 10 2 0 5 10 9 23 10 12 0 42 4
67 7 25 3 63 9 85 11 22 3 51 8 65 10 14 3 48 7 76 10 104 11 324 44 334 50 6
4 7 12 3 18 -4 6 -8 18 -9 27 -1 8 -7 38 -14 65 -6 28 -14 64 -17 80 -5 35
-23 105 -26 104 -1 0 -45 -14 -97 -31z"/>
<path d="M679 6138 c0 -2 -2 -10 -4 -18 -1 -8 -15 -71 -30 -138 -14 -68 -25
-126 -22 -128 4 -4 34 -10 107 -19 19 -3 53 -7 76 -10 22 -3 60 -8 85 -11 24
-3 55 -7 69 -9 22 -4 76 -11 225 -30 22 -3 57 -8 77 -11 51 -7 96 -13 143 -19
22 -3 56 -7 75 -10 35 -5 99 -13 155 -20 17 -2 46 -6 65 -9 19 -2 58 -7 85
-11 28 -3 66 -8 85 -12 19 -3 49 -6 65 -8 17 -1 48 -6 70 -10 22 -3 58 -8 80
-11 22 -2 54 -6 70 -8 31 -4 94 -13 155 -20 43 -6 117 -16 147 -21 13 -2 27
-6 33 -10 5 -3 10 -2 10 3 0 8 -118 47 -215 73 -16 4 -61 17 -100 29 -38 12
-83 25 -100 30 -69 19 -211 61 -225 67 -21 9 -30 11 -80 23 -25 6 -54 14 -65
19 -11 5 -42 15 -70 22 -27 6 -54 15 -60 18 -5 3 -14 6 -20 7 -11 2 -193 55
-360 106 -55 16 -138 41 -185 55 -47 14 -134 41 -194 59 -94 30 -144 40 -147
32z"/>
<path d="M2735 5390 c-26 -11 -113 -37 -145 -44 -77 -16 -174 -53 -184 -71 -6
-11 -13 -22 -16 -25 -3 -3 -26 -36 -50 -75 -25 -38 -48 -74 -53 -80 -4 -5 -29
-44 -56 -85 -26 -41 -97 -149 -156 -240 -60 -91 -146 -223 -193 -295 -46 -71
-115 -176 -153 -233 -38 -57 -69 -108 -69 -113 0 -5 -4 -9 -10 -9 -5 0 -10 -7
-10 -15 0 -8 -4 -15 -10 -15 -5 0 -10 -7 -10 -15 0 -8 -4 -15 -10 -15 -5 0
-10 -4 -10 -9 0 -5 -41 -71 -91 -147 -50 -77 -104 -159 -120 -184 -16 -25 -32
-49 -36 -55 -5 -5 -67 -100 -138 -210 -121 -187 -261 -401 -285 -435 -5 -8
-23 -35 -39 -60 -86 -134 -212 -326 -218 -335 -5 -5 -28 -41 -53 -80 -25 -38
-48 -74 -52 -80 -36 -47 -215 -329 -230 -363 -50 -111 6 -246 126 -301 37 -17
264 -18 5220 -18 4104 0 5190 2 5223 12 59 18 97 48 129 103 24 39 29 58 29
117 0 58 -5 79 -28 124 -16 29 -33 58 -38 65 -9 10 -92 137 -274 416 -27 41
-103 158 -170 260 -67 102 -130 200 -140 218 -11 17 -23 32 -27 32 -4 0 -8 4
-8 10 0 5 -17 35 -39 67 -21 32 -74 112 -117 178 -204 314 -254 391 -264 405
-5 8 -63 96 -127 195 -65 99 -121 182 -125 183 -5 2 -8 7 -8 12 0 8 -119 194
-138 215 -5 6 -11 16 -13 22 -2 6 -134 207 -294 446 l-290 436 -75 25 c-123
40 -251 78 -254 74 -2 -3 -27 -83 -32 -103 -1 -5 -16 -53 -33 -105 l-30 -94
146 -291 c80 -159 230 -457 333 -660 103 -204 218 -431 256 -505 37 -74 68
-137 69 -140 0 -3 14 -30 30 -60 77 -147 125 -246 125 -257 0 -6 4 -13 8 -15
5 -1 45 -76 89 -166 87 -172 92 -197 52 -237 -19 -20 -36 -20 -1900 -25 -1277
-3 -1882 -8 -1887 -15 -10 -15 -93 -80 -118 -93 -25 -13 -85 0 -109 25 -9 8
-34 31 -56 49 l-41 34 -1875 0 c-1406 0 -1880 3 -1896 12 -33 17 -47 40 -44
73 1 17 248 522 564 1151 309 617 560 1123 558 1126 -4 4 -40 175 -51 248 -9
54 -16 58 -59 40z m-634 -1171 c17 -20 17 -24 3 -57 -8 -19 -19 -41 -25 -49
-6 -7 -8 -13 -4 -13 4 0 3 -6 -3 -13 -10 -12 -143 -273 -510 -1002 -58 -115
-108 -219 -111 -230 -7 -26 -6 -144 2 -172 21 -82 115 -174 202 -198 49 -14
7990 -14 8052 0 66 15 146 74 180 133 15 26 28 51 30 57 13 69 17 106 15 138
-3 34 -77 186 -575 1172 -50 99 -89 189 -88 200 7 51 57 61 91 18 22 -28 244
-361 265 -398 6 -11 69 -108 140 -215 71 -107 181 -276 246 -375 65 -99 123
-185 128 -192 6 -7 11 -14 11 -16 0 -2 77 -120 170 -261 94 -141 170 -260 170
-265 0 -5 3 -11 8 -13 9 -4 92 -127 92 -138 0 -4 7 -14 16 -21 9 -7 20 -22 25
-34 11 -25 30 -55 46 -72 38 -42 18 -138 -36 -171 -29 -17 -203 -18 -4958 -17
-4008 1 -4933 3 -4954 14 -64 32 -78 127 -27 185 5 6 18 25 28 41 11 17 25 39
32 49 133 201 240 364 304 461 43 66 80 123 82 126 3 6 254 389 282 429 5 8
45 69 89 135 43 66 148 226 233 355 84 129 181 276 213 327 33 51 67 94 75 96
31 9 43 6 61 -14z"/>
<path d="M3190 5386 c0 -2 7 -7 16 -10 8 -3 12 -2 9 4 -6 10 -25 14 -25 6z"/>
<path d="M3244 5364 c11 -8 27 -14 36 -14 9 0 20 -4 26 -8 5 -5 38 -19 74 -32
36 -13 83 -31 105 -41 64 -27 599 -239 615 -244 17 -4 79 -29 127 -51 17 -8
34 -14 38 -14 4 0 21 -6 38 -14 18 -8 52 -21 77 -31 25 -9 59 -23 75 -30 17
-7 68 -27 115 -45 47 -18 89 -37 95 -42 5 -4 15 -8 23 -8 7 0 32 -8 55 -19 23
-10 103 -42 178 -71 l137 -52 21 21 c12 12 21 23 21 26 0 3 10 17 23 31 13 13
31 38 40 54 l18 29 -53 16 c-29 9 -68 21 -85 26 -18 5 -48 13 -65 18 -35 10
-318 93 -483 142 -55 16 -107 31 -115 33 -45 12 -377 108 -390 113 -8 3 -20 7
-27 8 -6 2 -52 15 -103 30 -51 15 -97 28 -103 30 -7 1 -19 5 -27 8 -14 6 -148
44 -180 52 -8 1 -51 14 -95 28 -158 49 -231 67 -211 51z"/>
<path d="M8063 5356 c-40 -13 -73 -22 -73 -20 0 1 -15 -3 -34 -11 -18 -8 -44
-16 -57 -19 -13 -3 -40 -10 -59 -16 -19 -6 -80 -24 -135 -40 -55 -15 -154 -44
-220 -64 -66 -20 -128 -39 -137 -41 -10 -3 -26 -7 -35 -10 -10 -2 -119 -34
-243 -70 -124 -37 -229 -68 -235 -69 -5 -2 -17 -6 -25 -9 -17 -6 -327 -96
-350 -102 -9 -1 -56 -15 -105 -30 -48 -15 -93 -28 -99 -29 -26 -5 -56 -18 -56
-24 0 -9 47 -79 84 -124 l29 -35 121 49 c67 27 126 51 131 52 6 2 19 7 30 11
11 4 45 18 75 30 30 12 64 26 75 30 11 4 25 9 30 11 6 1 110 43 232 92 122 49
224 87 227 84 3 -3 6 0 6 6 0 7 7 12 15 12 8 0 23 4 33 9 9 6 94 40 187 77 94
36 181 71 195 77 14 5 31 11 38 13 6 1 31 12 55 23 24 12 50 21 58 21 8 0 19
4 25 8 5 5 25 15 44 22 19 7 49 19 65 25 17 7 55 23 85 35 30 12 59 23 65 24
15 3 52 25 40 25 -5 0 -43 -10 -82 -23z"/>
<path d="M8150 5330 c-8 -5 -12 -11 -10 -14 3 -2 14 2 24 10 22 15 10 19 -14
4z"/>
<path d="M3202 5325 c2 -2 51 -29 109 -59 57 -29 124 -65 149 -78 25 -14 79
-42 120 -63 41 -22 77 -42 80 -45 3 -3 41 -23 85 -46 75 -39 154 -80 305 -161
36 -19 71 -40 78 -45 6 -6 12 -7 12 -4 0 4 12 -1 28 -12 15 -11 45 -28 67 -39
37 -18 127 -66 285 -151 36 -19 112 -60 170 -90 58 -30 111 -59 117 -64 16
-13 53 -4 78 19 11 10 37 31 57 46 50 37 65 65 41 73 -18 5 -189 74 -248 99
-16 7 -142 59 -280 115 -137 56 -263 108 -280 115 -37 15 -139 57 -305 125
-222 91 -344 141 -405 166 -33 14 -70 30 -82 35 -13 5 -33 13 -45 19 -89 37
-148 57 -136 45z"/>
<path d="M8090 5307 c-14 -7 -52 -23 -85 -36 -33 -13 -79 -32 -102 -42 -24
-11 -45 -19 -48 -19 -2 0 -28 -11 -57 -23 -29 -13 -84 -36 -123 -52 -38 -15
-82 -34 -97 -42 -16 -8 -28 -11 -28 -7 0 3 -6 1 -13 -5 -8 -6 -33 -17 -56 -25
-39 -14 -62 -24 -136 -56 -16 -8 -32 -14 -35 -15 -17 -5 -377 -154 -427 -176
-24 -10 -45 -19 -49 -19 -3 0 -36 -13 -72 -28 -37 -16 -103 -44 -147 -62 -44
-18 -96 -39 -115 -48 -19 -8 -41 -15 -47 -15 -7 0 -13 -4 -13 -8 0 -4 -13 -10
-30 -14 -16 -4 -33 -11 -36 -16 -7 -12 66 -81 123 -115 l41 -25 69 37 c37 20
106 57 153 82 47 25 112 59 145 77 33 18 105 56 160 85 133 70 238 126 305
163 30 17 89 48 130 69 41 22 102 54 135 72 33 17 110 58 170 90 61 32 115 63
121 67 6 5 14 6 17 2 4 -3 7 -2 7 3 0 5 40 29 90 54 49 25 90 48 90 53 0 10
-11 9 -40 -6z"/>
<path d="M3167 5299 c7 -7 15 -10 18 -7 3 3 -2 9 -12 12 -14 6 -15 5 -6 -5z"/>
<path d="M3306 5208 c126 -83 144 -95 164 -105 8 -4 20 -11 25 -16 11 -9 201
-134 375 -246 63 -41 117 -78 118 -83 2 -4 8 -8 13 -8 5 0 57 -31 114 -70 57
-38 109 -70 114 -70 5 0 11 -3 13 -8 2 -4 28 -23 58 -42 30 -19 60 -38 65 -42
6 -5 65 -44 132 -87 l123 -79 52 20 c56 21 78 35 78 49 0 5 -8 9 -19 9 -10 0
-24 7 -31 15 -7 8 -16 15 -21 15 -5 0 -43 20 -85 45 -41 25 -77 45 -79 45 -2
0 -30 15 -62 34 -32 18 -80 46 -108 61 -27 15 -99 55 -158 89 -60 34 -129 73
-155 87 -26 14 -67 37 -92 51 -25 14 -94 53 -155 87 -60 33 -117 66 -125 71
-8 5 -31 17 -50 27 -19 9 -37 19 -40 23 -3 3 -35 21 -72 40 -38 19 -68 38 -68
43 0 4 -4 6 -9 3 -5 -3 -19 2 -32 12 -13 9 -42 27 -64 39 -22 11 -57 30 -78
42 -73 41 -50 20 59 -51z"/>
<path d="M8070 5230 c-47 -27 -101 -57 -120 -66 -19 -10 -37 -20 -40 -23 -3
-4 -21 -14 -40 -25 -19 -10 -62 -33 -95 -51 -33 -18 -76 -41 -95 -51 -19 -11
-37 -21 -40 -24 -5 -5 -88 -50 -155 -85 -22 -11 -42 -22 -45 -25 -6 -7 -284
-162 -355 -199 -27 -14 -52 -29 -55 -32 -5 -6 -48 -30 -200 -112 -41 -22 -77
-43 -80 -46 -3 -3 -36 -22 -74 -41 -39 -20 -62 -36 -52 -38 9 -2 16 -8 16 -13
0 -5 6 -9 13 -9 7 0 31 -9 53 -19 47 -23 24 -33 267 126 103 67 192 123 197
123 4 0 10 3 12 8 3 6 138 100 163 112 12 6 65 41 80 53 6 4 44 29 85 54 41
26 81 53 88 60 7 7 19 13 27 13 7 0 15 4 17 8 3 8 125 92 133 92 8 0 100 65
103 73 2 4 8 7 14 7 6 0 45 24 87 53 93 63 111 75 131 84 15 7 57 43 49 43 -2
-1 -42 -23 -89 -50z"/>
</g>
</svg>
